<svg version="1.1" xmlns="http://www.w3.org/2000/svg" xmlns:xlink="http://www.w3.org/1999/xlink" width="512px" height="512px" viewBox="0,0,256,256"><g fill="#000000" fill-rule="nonzero" stroke="none" stroke-width="1" stroke-linecap="butt" stroke-linejoin="miter" stroke-miterlimit="10" stroke-dasharray="" stroke-dashoffset="0" font-family="none" font-weight="none" font-size="none" text-anchor="none" style="mix-blend-mode: normal"><g transform="translate(0.00417,0.00003) scale(0.5,0.5)"><path d="M243.4,2.587c8,-3.4495 17.2,-3.4495 25.2,0l224,96.003c14,6.01 21.8,21.01 18.7,35.81c-3,14.9 -16.1,24.7 -32.2,25.6v8c0,13.3 -9.8,24 -24,24h-400c-12.36,0 -24,-10.7 -24,-24v-8c-14.29,-0.9 -27.392,-10.7 -30.4472,-25.6c-3.0548,-14.8 4.7762,-29.8 18.7372,-35.81zM256,128c17.7,0 32,-14.3 32,-32c0,-17.67 -14.3,-32 -32,-32c-17.7,0 -32,14.33 -32,32c0,17.7 14.3,32 32,32zM127.1,416h40v-192h64v192h48.9v-192h64v192h40v-192h64v196.3c0.6,0.3 1.2,-0.2 1.8,1.1l48,32c11.7,7.8 16.9,22.4 12.8,35.9c-4.1,13.5 -16.5,22.7 -30.6,22.7h-448.9c-13.2,0 -25.642,-9.2 -29.728,-22.7c-4.087,-13.5 1.143,-28.1 12.878,-35.9l48,-32c0.57,-1.3 1.16,-0.8 0.85,-1.1v-196.3h64z"></path></g></g></svg>